<?xml version="1.0" standalone="no"?>
<!DOCTYPE svg PUBLIC "-//W3C//DTD SVG 20010904//EN"
 "http://www.w3.org/TR/2001/REC-SVG-20010904/DTD/svg10.dtd">
<svg version="1.0" xmlns="http://www.w3.org/2000/svg"
 width="70.000000pt" height="50.000000pt" viewBox="0 0 70.000000 50.000000"
 preserveAspectRatio="xMidYMid meet">
<metadata>
Created by potrace 1.16, written by Peter Selinger 2001-2019
</metadata>
<g transform="translate(0.000000,50.000000) scale(0.100000,-0.100000)"
fill="#000000" stroke="none">
<path d="M284 451 c-31 -19 -54 -64 -54 -104 0 -16 -3 -18 -12 -9 -18 18 -79
14 -114 -7 -39 -24 -64 -76 -64 -136 0 -52 16 -89 55 -125 24 -23 36 -25 126
-28 l99 -4 0 26 c0 26 -1 26 -77 26 -93 0 -122 13 -146 63 -16 31 -17 42 -7
72 17 51 56 78 103 72 27 -4 37 -2 37 9 0 8 10 14 24 14 19 0 25 7 30 34 7 37
19 50 53 60 17 5 29 1 48 -18 38 -38 32 -68 -25 -131 -42 -47 -50 -61 -50 -95
0 -36 3 -40 25 -40 21 0 25 5 25 30 0 22 14 45 51 86 51 56 51 57 47 112 -4
47 -10 60 -37 84 -38 34 -91 37 -137 9z"/>
<path d="M472 378 c2 -17 12 -24 38 -29 97 -16 140 -95 101 -184 -26 -60 -62
-75 -176 -75 -84 0 -85 0 -85 -25 l0 -25 100 0 c115 0 144 10 187 67 25 33 28
44 28 114 0 63 -4 83 -21 106 -35 47 -82 73 -131 73 -40 0 -44 -2 -41 -22z"/>
</g>
</svg>
