<svg xmlns="http://www.w3.org/2000/svg" viewBox="0 0 1086.31 645.51"><title>CloudQuestionsLogo</title><g id="Capa_2" data-name="Capa 2"><g id="Capa_1-2" data-name="Capa 1"><path d="M523.06,0h14.82c32,.81,64.35,7.26,92.7,22.57C661,38.94,686.53,65,700.89,96.56c14.25,31,17.73,65.88,15.11,99.58-1.59,19.1-5.68,38.15-13.59,55.67-8,17.68-18.08,34.59-31.32,48.85a437.7,437.7,0,0,1-32.19,29.76c-25.82,22.14-54.78,41.07-76.63,67.51-10.12,12.44-15.29,28.46-15.47,44.41-.11,23.05,0,46.11,0,69.16H474.63q0-27.24,0-54.48c.05-13-.43-26,1.54-38.92,2.43-17.23,8.6-34.17,19.36-48,12.67-16.23,27.68-30.45,43.2-43.91,23.68-20.24,49.14-38.5,71-60.85a146.7,146.7,0,0,0,25.51-37.56c8.72-18.57,11.25-39.48,10.26-59.8-.91-17.69-5.39-35.39-14.46-50.7a103.14,103.14,0,0,0-44.39-40.37c-18.08-8.63-38.31-12-58.24-11.83-23.5-.1-47.55,4.7-67.82,17-23.33,14-41,37.34-47.18,63.89-4.82,18.62-3.41,38-3.6,57-.15,3.87.65,8.21-1.66,11.61-2.15,3.08-6.21,3.64-9.68,3.39-16.69-1-33.38-2-50.07-2.93-2.65-.13-5.54-.63-7.4-2.7-2.51-2.78-2.33-6.8-2.35-10.3.17-16.32-.55-32.71,1.34-49,2.69-24.91,10.44-49.43,23.82-70.7,17.18-27.35,42.59-49.3,71.74-63.07C462.78,6.4,493,.84,523.06,0Z"/><path d="M778.3,107.45c31-6.24,63.16-4.26,94,2.08,10,2.39,20.34,4.26,29.78,8.58a266.68,266.68,0,0,1,51.79,23.43c3.74,2.09,6.81,5.18,10.66,7.1,10.12,6.06,19.06,13.83,28.36,21,7.93,7.69,16.19,15.08,23.46,23.44,5.17,4.89,9.19,10.82,13.72,16.31a166.53,166.53,0,0,1,13.74,20.12c8.64,11.49,14.44,24.76,20.33,37.79,3.52,7.76,6,15.9,8.9,23.92,1.34,2,1.8,4.45,2.51,6.73a277.58,277.58,0,0,1-1.13,156.93,10.39,10.39,0,0,1-1.39,2.86c-3.21,9.21-6.25,18.5-10.38,27.35-5.47,11.58-10.62,23.48-18.4,33.74A237.12,237.12,0,0,1,1010.72,562a266.45,266.45,0,0,1-44.28,37.26c-7,3.76-13.08,9-20.2,12.58a276.65,276.65,0,0,1-50.12,21,73.34,73.34,0,0,1-14.92,4.58,269.75,269.75,0,0,1-51.81,7.63c-15,.63-30,.33-45,.4H546.76q0-31.82,0-63.62H793.39c16.38-.09,32.87.53,49.14-1.85,7-1.79,14.21-2.49,21.2-4.28a207.89,207.89,0,0,0,38.16-13.08c7.52-3.71,15.46-6.82,22.08-12.1,13.23-8.37,26.34-17.35,36.78-29.15a138.16,138.16,0,0,0,23.54-27.57c5.52-8.28,11.77-16.16,15.65-25.41a205.32,205.32,0,0,0,19.14-57.62,6.65,6.65,0,0,0,.92-2.6,213.14,213.14,0,0,0,0-67.45,7.85,7.85,0,0,0-.91-2.55A207.13,207.13,0,0,0,1004.42,290c-4.19-8.93-8.08-18.13-14.19-25.95-8.05-12.58-16.76-25-28-34.94-10.06-11.43-22.46-20.49-35.24-28.65-8.12-6.44-17.72-10.51-27-14.9-15.13-7-31.37-11.11-47.51-15a211.26,211.26,0,0,0-63.05-1.74c-9.24,1.12-18.56,1.62-27.68,3.52-2.72-19.62-4.44-39.43-9.33-58.67C760.66,110.17,769.67,109.52,778.3,107.45Z"/><path d="M150.83,193.64a234.47,234.47,0,0,1,85.49-14.56c11.29-.12,22.31,2.75,33.1,5.76,11.76,4,23.64,7.49,35.53,11,.87,9.81,2.91,19.46,4.42,29.18,1.42,10.69,4.55,21,5.73,31.76-5.83-1.35-12-1.89-17.51-4.12-11.36-2.51-22.75-4.87-34.14-7.24a172.64,172.64,0,0,0-86.32,6.46c-18.95,7.87-38.19,16.58-53.22,30.91-7.23,5.22-13.31,11.82-19.22,18.45-4.23,4.53-7.14,10.07-11.39,14.58C81,333.32,72.65,353.46,67.72,374.23a8.71,8.71,0,0,0-1,2.56,175.38,175.38,0,0,0,.09,71.32c.2.44.61,1.31.82,1.75,3.59,14.39,8.28,28.59,15.43,41.63,3.7,6.72,7,13.79,12.27,19.51,8.5,11,17,22.28,28.37,30.55,3.85,3.21,7.83,6.25,11.9,9.17,6,5.38,13.41,8.76,20.48,12.5A169.18,169.18,0,0,0,204.27,579c9.8,2.61,20,2.62,30.12,2.86H474.62q0,31.8,0,63.62-120.12,0-240.24,0a242.16,242.16,0,0,1-67.86-9.39c-4.56-1.12-8.63-3.53-13.12-4.84-12.13-3.91-23.48-9.75-34.8-15.5a126.39,126.39,0,0,1-18.29-12,183.27,183.27,0,0,1-24.57-19.15c-3.64-3-6.37-6.95-10.13-9.84a194.29,194.29,0,0,1-19-22.23c-3.16-5.39-7.71-9.77-10.84-15.18-6.05-9.28-10.87-19.29-15.6-29.29-3.31-6.67-5.16-13.94-8.48-20.6A232.08,232.08,0,0,1,.19,430.93C-.18,421.62.14,412.3,0,403c-.2-15.44,2.47-30.75,5.78-45.78,3.69-15.95,9.85-31.18,16.79-45.95,10.29-23.2,26.11-43.42,43-62.11,3.78-3.15,7.2-6.69,10.86-10,5.18-4.87,11-9,16.25-13.76,11-7.68,22.07-15.27,34.26-20.89C134.93,200.87,142.41,196.17,150.83,193.64Z"/></g></g></svg>
